<?xml version="1.0" encoding="UTF-8"?>
<svg id="Camada_2" data-name="Camada 2" xmlns="http://www.w3.org/2000/svg" viewBox="0 0 500 144.16">
  <defs>
    <style>
      .cls-1 {
        fill: #fff;
      }

      .cls-2 {
        fill: #6cac8d;
      }

      .cls-3 {
        fill: #00bbff;
      }

      .cls-4 {
        fill: #fefefe;
      }
    </style>
  </defs>
  <path class="cls-1" d="M.02,.02c166.41,0,332.83,0,499.24-.02,.61,0,.75,.14,.75,.75-.02,47.56-.02,95.11,0,142.67,0,.61-.14,.75-.75,.75-166.17-.02-332.34-.02-498.51,0-.61,0-.75-.14-.75-.75C.02,95.61,.02,47.81,.02,.02Z"/>
  <path class="cls-2" d="M297.34,66.71c0,1.82,0,3.65,0,5.47,.03,.5-.28,2.94-.28,2.94,0,0-1.42,7.76-2.96,11.43-1.58,3.77-3.7,7.19-6.36,10.28-3.95,4.58-8.81,7.93-14.27,10.4-3.09,1.4-6.32,2.43-9.66,3.16-2.34,.51-4.68,.9-7.06,1.13-.32,.04-1.58,.15-1.95,.17-.46,.07-3.36,.14-4.38,.16-.28,.02-40.31,.15-40.56-.08,0-3.92,.01-7.84,.02-11.76,0-10.6,0-21.2-.02-31.8,0-.71,.17-.89,.89-.89,7.71,.03,15.41,.02,23.12,.02,.17,.28,.08,.58,.08,.87,0,7.84,0,15.69,0,23.53,0,.29-.08,.6,.08,.87,2.42,.01,4.85,.04,7.27,.04,2.99,0,9.87-.11,10.3-.15,11.37-.68,20.02-7.96,21.24-19.61,.04-.37,.15-1.59,.16-1.96,.02-1.05,.12-1.99,0-2.99-.17-2.65-.6-5.24-1.51-7.76-.87-2.42-2.16-4.6-3.81-6.51-2.05-2.37-4.62-4.1-7.51-5.32-2.06-.88-4.23-1.4-6.44-1.79-.6-.11-2.51-.27-2.98-.29-.68-.02-1.35-.06-2.03-.06-12.63,0-25.26,0-37.9,.04-.76,0-.99-.15-.99-.96,.03-6.06,.03-12.1,.02-18.16,0-.18,.39-.13,.59-.13,13.67,0,44.24,.07,44.66,.2,.32,.01,1.64,.12,1.95,.17,4.01,.51,7.98,1.22,11.82,2.51,4.44,1.49,8.63,3.51,12.42,6.28,3.91,2.85,7.18,6.3,9.77,10.39,2.76,4.38,4.58,9.11,5.44,14.22,.17,1,.8,5.42,.8,5.92Z"/>
  <path class="cls-2" d="M160.53,45.41s-5.07,.73-7.47,1.65c-2.84,1.09-5.37,2.71-7.5,4.88-2.47,2.52-4.25,5.5-5.28,8.9-.5,1.64-.99,5.01-.99,5.01s-.07,.4-.12,.83c-.01,.32-.02,.65-.03,.97-.14,1.15-.12,2.31,0,3.46,.02,.37,.15,1.63,.17,1.92,.07,2.25,.74,4.37,1.53,6.43,1.12,2.94,2.84,5.52,5.1,7.72,3.28,3.18,7.21,5.11,11.68,5.96,.97,.19,3.92,.42,4.41,.46,.65,0,3.05-.07,3.59-.13,2.95-.1,5.75-.85,8.48-1.91,.59-.23,1.16-.5,1.74-.75,.16-.28,.08-.58,.08-.87,0-7.16,0-14.32,0-21.49q0-.87,.88-.88c6.51,0,13.03,0,19.54-.01,.66,0,.91,.16,.85,.84-.06,.75-.01,25.66-.02,33.77-.03,.39,.04,.52-.17,.73-1.57,.92-2.99,1.94-4.59,2.81-2.42,1.32-4.9,2.49-7.47,3.49-3.07,1.2-6.24,2.08-9.45,2.83-1.67,.39-3.36,.69-5.07,.88-.58,.06-1.16,.15-1.74,.22-.26,.11-3.62,.31-4.06,.32-2.05,.07-4.1,.08-6.15,0-.43-.01-8.79-.97-11.93-1.9-3.57-1.06-7.04-2.39-10.29-4.28-2.85-1.66-5.53-3.53-7.94-5.76-3.04-2.81-5.67-5.98-7.74-9.56-1.63-2.81-2.9-5.8-3.86-8.93-.68-2.22-1.11-4.49-1.56-6.75-.18-.91-.35-3.55-.35-3.94,0-1.93,0-6.56,.11-6.94,.26-3.86,1.05-7.61,2.34-11.26,1.65-4.69,4.05-8.95,7.23-12.76,1.89-2.26,4.04-4.25,6.36-6.09,3.31-2.63,6.95-4.66,10.85-6.22,3.52-1.41,7.16-2.42,10.92-2.96,1.25-.18,2.5-.35,3.74-.52,.32-.13,6.15-.28,7.11-.28,.8,0,3.05,.15,3.43,.16,.35,.03,.66,.04,.97,.1,5.2,.58,10.3,1.61,15.16,3.64,4.09,1.71,7.88,3.9,11.24,6.81,1.59,1.38,3.08,2.87,4.47,4.45,.32,.36,.26,.53-.07,.83-1.92,1.69-3.82,3.4-5.72,5.12-2.96,2.67-5.91,5.35-8.86,8.04-.33,.3-.48,.15-.71-.09-1.23-1.24-2.45-2.47-3.84-3.54-1.65-1.28-3.41-2.39-5.3-3.26-2.09-.96-4.3-1.54-6.55-1.96-.57-.11-1.15-.15-1.73-.2-.39-.06-.76-.05-1.16-.09-1.03-.07-4.27,.11-4.27,.11Z"/>
  <path class="cls-3" d="M391.1,27.27c-.93,2.12-1.88,4.22-2.79,6.35-1.88,4.37-3.75,8.75-5.62,13.13-2.36,5.53-4.72,11.06-7.08,16.58-2.18,5.09-4.38,10.16-6.56,15.25-2.53,5.89-5.03,11.79-7.56,17.68-2.02,4.72-4.06,9.43-6.09,14.15-.2,.46-.36,.94-.54,1.41-.24,.18-.52,.09-.79,.09-7.31,0-14.63,0-21.94,0-.27,0-.66,.24-.83-.22,1.69-3.93,3.39-7.86,5.06-11.79,1.53-3.6,3.02-7.21,4.55-10.8,1.21-2.82,2.48-5.62,3.69-8.44,1.22-2.84,2.4-5.71,3.61-8.56,1.04-2.43,2.12-4.85,3.17-7.28,1.07-2.48,2.1-4.98,3.16-7.47,.86-2.02,1.76-4.03,2.63-6.06,1.08-2.51,2.14-5.03,3.21-7.54,.86-2,1.73-3.99,2.59-5.98,.93-2.17,1.84-4.36,2.77-6.53,.59-1.37,1.19-2.74,1.79-4.11,.25-.16,.53-.08,.79-.08,7.31,0,14.62,0,21.93,0,.28,0,.66-.23,.84,.22Z"/>
  <path class="cls-3" d="M46.3,61.86c4.21-1.56,8.42-3.13,12.63-4.69,4.76-1.77,9.52-3.53,14.29-5.29,5.95-2.19,11.91-4.38,17.86-6.57,4.04-1.48,8.09-2.95,12.12-4.46,.58-.22,.71-.18,.71,.46-.02,5.27-.02,10.55,0,15.82,0,.5-.18,.68-.62,.83-4.21,1.47-8.4,2.97-12.6,4.46-4.83,1.71-9.65,3.43-14.48,5.14-3.09,1.1-6.19,2.19-9.34,3.31,.73,.59,1.63,.73,2.44,1.02,10.47,3.73,20.96,7.43,31.44,11.13,.88,.31,1.76,.63,2.64,.92,.38,.13,.52,.33,.51,.75-.02,5.3-.02,10.6,0,15.9,0,.67-.26,.7-.75,.49-2.31-.97-4.69-1.77-7.04-2.64-2.81-1.03-5.6-2.13-8.41-3.17-3.19-1.17-6.39-2.29-9.58-3.46-2.87-1.06-5.71-2.17-8.58-3.23-2.74-1.02-5.5-1.99-8.25-3.01-2.78-1.03-5.56-2.09-8.34-3.12-2.22-.82-4.45-1.63-6.67-2.44-.19-.18-.11-.41-.11-.61,0-5.64,0-11.29,0-16.93,0-.21-.07-.44,.1-.62Z"/>
  <path class="cls-3" d="M396.25,84.09c3.76-1.33,7.51-2.67,11.27-4,4.35-1.55,8.7-3.1,13.05-4.64,3.92-1.39,7.85-2.77,11.78-4.16,.21-.08,.42-.18,.73-.31-.59-.38-1.16-.55-1.71-.74-3.06-1.07-6.13-2.12-9.19-3.2-3.36-1.18-6.72-2.37-10.08-3.57-3.01-1.08-5.99-2.22-9.01-3.25-2.3-.78-4.58-1.61-6.87-2.44-.05-5.52,0-11.05-.02-16.57,0-.25-.07-.6,.4-.48,2.52,.95,5.03,1.9,7.55,2.84,6.17,2.29,12.35,4.56,18.52,6.84,8.92,3.29,17.85,6.59,26.77,9.89,1.33,.49,2.64,1,3.97,1.48,.31,.11,.47,.22,.47,.61-.02,5.68-.01,11.36,0,17.03,0,.37-.12,.62-.47,.75-2.73,.99-5.47,1.96-8.19,2.97-3.22,1.19-6.44,2.41-9.66,3.6-2.77,1.02-5.55,2.02-8.32,3.04-3.15,1.16-6.3,2.33-9.44,3.5-2.82,1.05-5.65,2.09-8.47,3.14-3.42,1.27-6.85,2.54-10.27,3.8-.87,.32-1.75,.65-2.62,.97-.3-.08-.23-.33-.23-.53,0-5.42,0-10.84,0-16.26,0-.11,.02-.21,.07-.31Z"/>
  <path class="cls-2" d="M320.94,27.13c1.99,4.79,3.99,9.59,5.98,14.38,1.65,3.98,3.3,7.96,4.97,11.93,.24,.58,.25,1.06-.02,1.67-2.76,6.42-5.46,12.85-8.19,19.28-1.29,3.04-2.5,6.11-3.99,9.05-.1,.21-.15,.45-.45,.65-.63-1.47-1.25-2.92-1.87-4.37-1.03-2.41-2.05-4.82-3.07-7.23-1.03-2.43-2.07-4.85-3.1-7.28-.89-2.07-1.78-4.13-2.67-6.2-1.02-2.38-2.02-4.77-3.04-7.15-1.07-2.5-2.17-5-3.24-7.51-.99-2.3-1.94-4.62-2.92-6.93-1.06-2.48-2.14-4.96-3.19-7.44-.4-.94-.89-1.85-1.16-2.85,.19-.16,.41-.1,.62-.1,8.24,0,16.48,0,24.72,0,.21,0,.43-.06,.63,.08Z"/>
  <path class="cls-4" d="M320.94,27.13c-1.67-.01-3.34-.03-5.01-.03-6.66,0-13.32,0-19.99,0-.32,0-.65,.03-.97,.04,.22-.3,.55-.18,.83-.18,8.1,0,16.2,0,24.31,0,.28,0,.6-.11,.83,.17Z"/>
  <path class="cls-4" d="M234.09,92.65c-.28-.24-.13-.55-.13-.83-.01-7.83,0-15.65,0-23.48,0-.32-.02-.65-.03-.97,.3,.26,.17,.61,.17,.91,0,8.12,0,16.24,0,24.36Z"/>
  <path class="cls-4" d="M391.1,27.27c-.13-.26-.37-.18-.57-.18-7.58,0-15.17,0-22.75,0-.08,0-.16,.02-.24,.02-.04-.32,.21-.16,.31-.16,7.59,0,15.17,0,22.76,0,.18,0,.6-.22,.5,.31Z"/>
  <path class="cls-4" d="M331.31,111.68c.12,.28,.37,.18,.56,.18,7.56,0,15.11,0,22.67,0,.11,0,.21-.03,.32-.04-.17,.25-.43,.18-.67,.18-7.45,0-14.89,0-22.34-.01-.18,0-.66,.3-.55-.31Z"/>
  <path class="cls-4" d="M46.3,61.86c-.02,.76-.04,1.51-.05,2.27,0,4.98,0,9.95,0,14.93,0,.32,.04,.65,.06,.97-.32-.21-.19-.54-.19-.82,0-5.51,0-11.02,0-16.52,0-.28-.12-.6,.18-.82Z"/>
  <path class="cls-4" d="M396.58,40.73c-.5-.04-.39,.34-.39,.61,0,5.48,0,10.96,.01,16.44-.17-.21-.1-.47-.1-.7,0-5.24,0-10.49,.01-15.73,0-.24-.33-.91,.47-.61Z"/>
  <path class="cls-4" d="M396.25,84.09c-.02,.27-.06,.54-.06,.8,0,5.14,0,10.28,0,15.42,0,.29-.17,.66,.21,.88-.59,.05-.3-.4-.3-.6-.02-2.87-.01-5.73-.01-8.6,0-2.35,0-4.7,0-7.06,0-.28-.11-.6,.15-.85Z"/>
  <path class="cls-4" d="M158.45,113.5c2.05,0,4.1,0,6.15,0-1.03,.28-2.08,.12-3.12,.11-1.01,0-2.03,.17-3.04-.12Z"/>
</svg>